<svg width="128" height="128" viewBox="0 0 128 128" fill="none" xmlns="http://www.w3.org/2000/svg">
<g clip-path="url(#clip0_10_2)">
<rect width="128" height="128" rx="30" fill="#0A84FF"/>
<g filter="url(#filter0_d_10_2)">
<path d="M92.64 94.08C93.2267 95.18 93.2633 96.28 92.75 97.38C92.3833 98.5533 91.76 99.4333 90.88 100.02C90.44 100.387 90.0367 100.717 89.67 101.01C89.3033 101.23 88.9 101.413 88.46 101.56C87.6533 102 86.7 102.147 85.6 102C85.16 102 84.7567 101.927 84.39 101.78C84.0233 101.633 83.6567 101.45 83.29 101.23C82.9233 101.01 82.52 100.79 82.08 100.57C81.7133 100.277 81.3467 99.9833 80.98 99.69C80.54 99.3233 80.1367 98.9933 79.77 98.7C79.4033 98.4067 79.0733 98.0767 78.78 97.71C78.4133 97.3433 78.0833 96.9767 77.79 96.61C77.4967 96.2433 77.2033 95.9133 76.91 95.62L75.59 94.19L54.47 72.08L54.8 94.19V95.18C54.8 95.4733 54.7633 95.8033 54.69 96.17C54.6167 96.4633 54.5433 96.7933 54.47 97.16C54.25 98.1133 53.9933 98.9567 53.7 99.69C53.5533 100.13 53.3333 100.497 53.04 100.79C52.82 101.083 52.5633 101.377 52.27 101.67C51.4633 102.403 50.51 102.807 49.41 102.88C48.31 103.247 47.2833 103.357 46.33 103.21C45.45 103.137 44.5333 102.88 43.58 102.44C42.8467 102 42.1867 101.267 41.6 100.24C41.4533 99.9467 41.3433 99.7633 41.27 99.69C41.27 99.6167 41.1967 99.36 41.05 98.92C40.61 98.1867 40.39 97.4533 40.39 96.72C40.3167 96.28 40.2433 95.8767 40.17 95.51C40.17 95.1433 40.1333 94.74 40.06 94.3C39.9867 94.0067 39.95 93.7133 39.95 93.42C39.95 93.1267 39.95 92.8333 39.95 92.54C40.0233 92.1733 40.06 91.88 40.06 91.66C40.06 91.3667 40.06 91.0367 40.06 90.67L39.95 81.98L39.84 65.81C39.84 61.1167 39.73 56.0567 39.51 50.63C39.4367 47.99 39.4 45.6433 39.4 43.59C39.4 41.5367 39.4367 39.2267 39.51 36.66V36.22C39.6567 35.4133 39.73 34.6433 39.73 33.91C39.73 33.1033 39.7667 32.3333 39.84 31.6C39.84 30.1333 40.17 28.6667 40.83 27.2C41.27 26.1 42.04 25.22 43.14 24.56C43.7267 24.1933 44.2767 23.9733 44.79 23.9C45.3767 23.7533 46 23.6067 46.66 23.46C47.1733 23.46 47.65 23.4967 48.09 23.57C48.6033 23.6433 49.08 23.7167 49.52 23.79C50.4733 23.9367 51.3533 24.34 52.16 25C52.38 25.22 52.5633 25.4767 52.71 25.77C52.93 26.0633 53.1133 26.43 53.26 26.87C53.6267 27.4567 53.8833 28.3 54.03 29.4C54.1033 29.84 54.14 30.28 54.14 30.72C54.2133 31.16 54.25 31.6367 54.25 32.15V36.66L54.36 50.08C55.5333 49.0533 56.67 47.99 57.77 46.89C58.9433 45.79 60.08 44.6167 61.18 43.37C63.16 41.3167 65.1033 39.3367 67.01 37.43C68.99 35.45 70.97 33.5067 72.95 31.6L73.28 31.27C73.8667 30.6833 74.4533 30.1333 75.04 29.62C75.7 29.0333 76.3233 28.4833 76.91 27.97C78.01 26.7233 79.3667 25.8433 80.98 25.33C82.0067 24.67 83.2167 24.4133 84.61 24.56C85.27 24.6333 85.8567 24.78 86.37 25C86.9567 25.22 87.5067 25.5133 88.02 25.88C88.3867 26.2467 88.7533 26.5767 89.12 26.87C89.4867 27.09 89.78 27.3833 90 27.75C90.5867 28.2633 90.9533 29.0333 91.1 30.06C91.1 30.8667 90.9533 31.6 90.66 32.26C90.44 32.6267 90.22 32.9933 90 33.36C89.78 33.7267 89.5233 34.0933 89.23 34.46C88.8633 34.9 88.5333 35.3033 88.24 35.67C87.9467 36.0367 87.6167 36.4033 87.25 36.77C86.9567 37.1367 86.6267 37.4667 86.26 37.76C85.9667 38.0533 85.6733 38.3833 85.38 38.75L83.95 40.18L63.38 61.19C64.48 62.29 65.6167 63.4633 66.79 64.71C68.0367 65.8833 69.21 67.0567 70.31 68.23C71.41 69.33 72.4367 70.3933 73.39 71.42C74.3433 72.3733 75.15 73.18 75.81 73.84C77.79 75.8933 79.6967 77.9467 81.53 80C83.3633 81.98 85.16 83.9967 86.92 86.05L87.25 86.38C87.8367 86.9667 88.3867 87.59 88.9 88.25C89.4133 88.8367 89.89 89.4233 90.33 90.01C91.43 91.2567 92.2 92.6133 92.64 94.08Z" fill="#F6F5FA"/>
</g>
</g>
<defs>
<filter id="filter0_d_10_2" x="35.4" y="23.46" width="62.12" height="87.97" filterUnits="userSpaceOnUse" color-interpolation-filters="sRGB">
<feFlood flood-opacity="0" result="BackgroundImageFix"/>
<feColorMatrix in="SourceAlpha" type="matrix" values="0 0 0 0 0 0 0 0 0 0 0 0 0 0 0 0 0 0 127 0" result="hardAlpha"/>
<feOffset dy="4"/>
<feGaussianBlur stdDeviation="2"/>
<feComposite in2="hardAlpha" operator="out"/>
<feColorMatrix type="matrix" values="0 0 0 0 0 0 0 0 0 0 0 0 0 0 0 0 0 0 0.25 0"/>
<feBlend mode="normal" in2="BackgroundImageFix" result="effect1_dropShadow_10_2"/>
<feBlend mode="normal" in="SourceGraphic" in2="effect1_dropShadow_10_2" result="shape"/>
</filter>
<clipPath id="clip0_10_2">
<rect width="128" height="128" rx="30" fill="white"/>
</clipPath>
</defs>
</svg>
